# 3ds Max Wavefront OBJ Exporter v0.97b - (c)2007 guruware
# File Created: 16.05.2021 01:37:15

#
# object Tube001
#

v  -0.0000 0.0000 -18.2199
v  -0.0000 0.8845 -18.2199
v  -0.0000 1.7690 -18.2199
v  -0.0000 2.6535 -18.2199
v  -0.0000 3.5380 -18.2199
v  -0.0000 4.4225 -18.2199
v  -0.0000 4.4225 -16.3311
v  -0.0000 3.5380 -16.3311
v  -0.0000 2.6535 -16.3311
v  -0.0000 1.7690 -16.3311
v  -0.0000 0.8845 -16.3311
v  -0.0000 0.0000 -16.3311
v  4.0543 0.0000 -17.7631
v  4.0543 0.8845 -17.7631
v  4.0543 1.7690 -17.7631
v  4.0543 2.6535 -17.7631
v  4.0543 3.5380 -17.7631
v  4.0543 4.4225 -17.7631
v  3.6340 4.4225 -15.9216
v  3.6340 3.5380 -15.9216
v  3.6340 2.6535 -15.9216
v  3.6340 1.7690 -15.9216
v  3.6340 0.8845 -15.9216
v  3.6340 0.0000 -15.9216
v  7.9053 0.0000 -16.4156
v  7.9053 0.8845 -16.4156
v  7.9053 1.7690 -16.4156
v  7.9053 2.6535 -16.4156
v  7.9053 3.5380 -16.4156
v  7.9053 4.4225 -16.4156
v  7.0858 4.4225 -14.7138
v  7.0858 3.5380 -14.7138
v  7.0858 2.6535 -14.7138
v  7.0858 1.7690 -14.7138
v  7.0858 0.8845 -14.7138
v  7.0858 0.0000 -14.7138
v  11.3599 0.0000 -14.2449
v  11.3599 0.8845 -14.2449
v  11.3599 1.7690 -14.2449
v  11.3599 2.6535 -14.2449
v  11.3599 3.5380 -14.2449
v  11.3599 4.4225 -14.2449
v  10.1823 4.4225 -12.7682
v  10.1823 3.5380 -12.7682
v  10.1823 2.6535 -12.7682
v  10.1823 1.7690 -12.7682
v  10.1823 0.8845 -12.7682
v  10.1823 0.0000 -12.7682
v  14.2449 0.0000 -11.3599
v  14.2449 0.8845 -11.3599
v  14.2449 1.7690 -11.3599
v  14.2449 2.6535 -11.3599
v  14.2449 3.5380 -11.3599
v  14.2449 4.4225 -11.3599
v  12.7681 4.4225 -10.1823
v  12.7681 3.5380 -10.1823
v  12.7681 2.6535 -10.1823
v  12.7681 1.7690 -10.1823
v  12.7681 0.8845 -10.1823
v  12.7681 0.0000 -10.1823
v  16.4156 0.0000 -7.9053
v  16.4156 0.8845 -7.9053
v  16.4156 1.7690 -7.9053
v  16.4156 2.6535 -7.9053
v  16.4156 3.5380 -7.9053
v  16.4156 4.4225 -7.9053
v  14.7138 4.4225 -7.0858
v  14.7138 3.5380 -7.0858
v  14.7138 2.6535 -7.0858
v  14.7138 1.7690 -7.0858
v  14.7138 0.8845 -7.0858
v  14.7138 0.0000 -7.0858
v  17.7631 0.0000 -4.0543
v  17.7631 0.8845 -4.0543
v  17.7631 1.7690 -4.0543
v  17.7631 2.6535 -4.0543
v  17.7631 3.5380 -4.0543
v  17.7631 4.4225 -4.0543
v  15.9216 4.4225 -3.6340
v  15.9216 3.5380 -3.6340
v  15.9216 2.6535 -3.6340
v  15.9216 1.7690 -3.6340
v  15.9216 0.8845 -3.6340
v  15.9216 0.0000 -3.6340
v  18.2199 0.0000 -0.0000
v  18.2199 0.8845 -0.0000
v  18.2199 1.7690 -0.0000
v  18.2199 2.6535 -0.0000
v  18.2199 3.5380 -0.0000
v  18.2199 4.4225 -0.0000
v  16.3311 4.4225 -0.0000
v  16.3311 3.5380 -0.0000
v  16.3311 2.6535 -0.0000
v  16.3311 1.7690 -0.0000
v  16.3311 0.8845 -0.0000
v  16.3311 0.0000 -0.0000
v  17.7631 0.0000 4.0543
v  17.7631 0.8845 4.0543
v  17.7631 1.7690 4.0543
v  17.7631 2.6535 4.0543
v  17.7631 3.5380 4.0543
v  17.7631 4.4225 4.0543
v  15.9216 4.4225 3.6340
v  15.9216 3.5380 3.6340
v  15.9216 2.6535 3.6340
v  15.9216 1.7690 3.6340
v  15.9216 0.8845 3.6340
v  15.9216 0.0000 3.6340
v  16.4156 0.0000 7.9053
v  16.4156 0.8845 7.9053
v  16.4156 1.7690 7.9053
v  16.4156 2.6535 7.9053
v  16.4156 3.5380 7.9053
v  16.4156 4.4225 7.9053
v  14.7138 4.4225 7.0858
v  14.7138 3.5380 7.0858
v  14.7138 2.6535 7.0858
v  14.7138 1.7690 7.0858
v  14.7138 0.8845 7.0858
v  14.7138 0.0000 7.0858
v  14.2449 0.0000 11.3599
v  14.2449 0.8845 11.3599
v  14.2449 1.7690 11.3599
v  14.2449 2.6535 11.3599
v  14.2449 3.5380 11.3599
v  14.2449 4.4225 11.3599
v  12.7682 4.4225 10.1823
v  12.7682 3.5380 10.1823
v  12.7682 2.6535 10.1823
v  12.7682 1.7690 10.1823
v  12.7682 0.8845 10.1823
v  12.7682 0.0000 10.1823
v  11.3599 0.0000 14.2449
v  11.3599 0.8845 14.2449
v  11.3599 1.7690 14.2449
v  11.3599 2.6535 14.2449
v  11.3599 3.5380 14.2449
v  11.3599 4.4225 14.2449
v  10.1823 4.4225 12.7681
v  10.1823 3.5380 12.7681
v  10.1823 2.6535 12.7681
v  10.1823 1.7690 12.7681
v  10.1823 0.8845 12.7681
v  10.1823 0.0000 12.7681
v  7.9053 0.0000 16.4156
v  7.9053 0.8845 16.4156
v  7.9053 1.7690 16.4156
v  7.9053 2.6535 16.4156
v  7.9053 3.5380 16.4156
v  7.9053 4.4225 16.4156
v  7.0858 4.4225 14.7138
v  7.0858 3.5380 14.7138
v  7.0858 2.6535 14.7138
v  7.0858 1.7690 14.7138
v  7.0858 0.8845 14.7138
v  7.0858 0.0000 14.7138
v  4.0543 0.0000 17.7631
v  4.0543 0.8845 17.7631
v  4.0543 1.7690 17.7631
v  4.0543 2.6535 17.7631
v  4.0543 3.5380 17.7631
v  4.0543 4.4225 17.7631
v  3.6340 4.4225 15.9216
v  3.6340 3.5380 15.9216
v  3.6340 2.6535 15.9216
v  3.6340 1.7690 15.9216
v  3.6340 0.8845 15.9216
v  3.6340 0.0000 15.9216
v  0.0000 0.0000 18.2199
v  0.0000 0.8845 18.2199
v  0.0000 1.7690 18.2199
v  0.0000 2.6535 18.2199
v  0.0000 3.5380 18.2199
v  0.0000 4.4225 18.2199
v  0.0000 4.4225 16.3311
v  0.0000 3.5380 16.3311
v  0.0000 2.6535 16.3311
v  0.0000 1.7690 16.3311
v  0.0000 0.8845 16.3311
v  0.0000 0.0000 16.3311
v  -4.0543 0.0000 17.7631
v  -4.0543 0.8845 17.7631
v  -4.0543 1.7690 17.7631
v  -4.0543 2.6535 17.7631
v  -4.0543 3.5380 17.7631
v  -4.0543 4.4225 17.7631
v  -3.6340 4.4225 15.9216
v  -3.6340 3.5380 15.9216
v  -3.6340 2.6535 15.9216
v  -3.6340 1.7690 15.9216
v  -3.6340 0.8845 15.9216
v  -3.6340 0.0000 15.9216
v  -7.9053 0.0000 16.4156
v  -7.9053 0.8845 16.4156
v  -7.9053 1.7690 16.4156
v  -7.9053 2.6535 16.4156
v  -7.9053 3.5380 16.4156
v  -7.9053 4.4225 16.4156
v  -7.0858 4.4225 14.7138
v  -7.0858 3.5380 14.7138
v  -7.0858 2.6535 14.7138
v  -7.0858 1.7690 14.7138
v  -7.0858 0.8845 14.7138
v  -7.0858 0.0000 14.7138
v  -11.3599 0.0000 14.2449
v  -11.3599 0.8845 14.2449
v  -11.3599 1.7690 14.2449
v  -11.3599 2.6535 14.2449
v  -11.3599 3.5380 14.2449
v  -11.3599 4.4225 14.2449
v  -10.1823 4.4225 12.7682
v  -10.1823 3.5380 12.7682
v  -10.1823 2.6535 12.7682
v  -10.1823 1.7690 12.7682
v  -10.1823 0.8845 12.7682
v  -10.1823 0.0000 12.7682
v  -14.2449 0.0000 11.3599
v  -14.2449 0.8845 11.3599
v  -14.2449 1.7690 11.3599
v  -14.2449 2.6535 11.3599
v  -14.2449 3.5380 11.3599
v  -14.2449 4.4225 11.3599
v  -12.7682 4.4225 10.1823
v  -12.7682 3.5380 10.1823
v  -12.7682 2.6535 10.1823
v  -12.7682 1.7690 10.1823
v  -12.7682 0.8845 10.1823
v  -12.7682 0.0000 10.1823
v  -16.4156 0.0000 7.9053
v  -16.4156 0.8845 7.9053
v  -16.4156 1.7690 7.9053
v  -16.4156 2.6535 7.9053
v  -16.4156 3.5380 7.9053
v  -16.4156 4.4225 7.9053
v  -14.7138 4.4225 7.0858
v  -14.7138 3.5380 7.0858
v  -14.7138 2.6535 7.0858
v  -14.7138 1.7690 7.0858
v  -14.7138 0.8845 7.0858
v  -14.7138 0.0000 7.0858
v  -17.7631 0.0000 4.0543
v  -17.7631 0.8845 4.0543
v  -17.7631 1.7690 4.0543
v  -17.7631 2.6535 4.0543
v  -17.7631 3.5380 4.0543
v  -17.7631 4.4225 4.0543
v  -15.9216 4.4225 3.6340
v  -15.9216 3.5380 3.6340
v  -15.9216 2.6535 3.6340
v  -15.9216 1.7690 3.6340
v  -15.9216 0.8845 3.6340
v  -15.9216 0.0000 3.6340
v  -18.2199 0.0000 -0.0000
v  -18.2199 0.8845 -0.0000
v  -18.2199 1.7690 -0.0000
v  -18.2199 2.6535 -0.0000
v  -18.2199 3.5380 -0.0000
v  -18.2199 4.4225 -0.0000
v  -16.3311 4.4225 -0.0000
v  -16.3311 3.5380 -0.0000
v  -16.3311 2.6535 -0.0000
v  -16.3311 1.7690 -0.0000
v  -16.3311 0.8845 -0.0000
v  -16.3311 0.0000 -0.0000
v  -17.7631 0.0000 -4.0543
v  -17.7631 0.8845 -4.0543
v  -17.7631 1.7690 -4.0543
v  -17.7631 2.6535 -4.0543
v  -17.7631 3.5380 -4.0543
v  -17.7631 4.4225 -4.0543
v  -15.9216 4.4225 -3.6340
v  -15.9216 3.5380 -3.6340
v  -15.9216 2.6535 -3.6340
v  -15.9216 1.7690 -3.6340
v  -15.9216 0.8845 -3.6340
v  -15.9216 0.0000 -3.6340
v  -16.4156 0.0000 -7.9053
v  -16.4156 0.8845 -7.9053
v  -16.4156 1.7690 -7.9053
v  -16.4156 2.6535 -7.9053
v  -16.4156 3.5380 -7.9053
v  -16.4156 4.4225 -7.9053
v  -14.7138 4.4225 -7.0858
v  -14.7138 3.5380 -7.0858
v  -14.7138 2.6535 -7.0858
v  -14.7138 1.7690 -7.0858
v  -14.7138 0.8845 -7.0858
v  -14.7138 0.0000 -7.0858
v  -14.2449 0.0000 -11.3599
v  -14.2449 0.8845 -11.3599
v  -14.2449 1.7690 -11.3599
v  -14.2449 2.6535 -11.3599
v  -14.2449 3.5380 -11.3599
v  -14.2449 4.4225 -11.3599
v  -12.7681 4.4225 -10.1823
v  -12.7681 3.5380 -10.1823
v  -12.7681 2.6535 -10.1823
v  -12.7681 1.7690 -10.1823
v  -12.7681 0.8845 -10.1823
v  -12.7681 0.0000 -10.1823
v  -11.3599 0.0000 -14.2449
v  -11.3599 0.8845 -14.2449
v  -11.3599 1.7690 -14.2449
v  -11.3599 2.6535 -14.2449
v  -11.3599 3.5380 -14.2449
v  -11.3599 4.4225 -14.2449
v  -10.1823 4.4225 -12.7682
v  -10.1823 3.5380 -12.7682
v  -10.1823 2.6535 -12.7682
v  -10.1823 1.7690 -12.7682
v  -10.1823 0.8845 -12.7682
v  -10.1823 0.0000 -12.7682
v  -7.9053 0.0000 -16.4156
v  -7.9053 0.8845 -16.4156
v  -7.9053 1.7690 -16.4156
v  -7.9053 2.6535 -16.4156
v  -7.9053 3.5380 -16.4156
v  -7.9053 4.4225 -16.4156
v  -7.0858 4.4225 -14.7138
v  -7.0858 3.5380 -14.7138
v  -7.0858 2.6535 -14.7138
v  -7.0858 1.7690 -14.7138
v  -7.0858 0.8845 -14.7138
v  -7.0858 0.0000 -14.7138
v  -4.0543 0.0000 -17.7631
v  -4.0543 0.8845 -17.7631
v  -4.0543 1.7690 -17.7631
v  -4.0543 2.6535 -17.7631
v  -4.0543 3.5380 -17.7631
v  -4.0543 4.4225 -17.7631
v  -3.6340 4.4225 -15.9216
v  -3.6340 3.5380 -15.9216
v  -3.6340 2.6535 -15.9216
v  -3.6340 1.7690 -15.9216
v  -3.6340 0.8845 -15.9216
v  -3.6340 0.0000 -15.9216
# 336 vertices

vn 0.0000 0.0000 -1.0000
vn 0.2225 0.0000 -0.9749
vn 0.0000 1.0000 -0.0000
vn -0.0000 0.0000 1.0000
vn -0.2225 0.0000 0.9749
vn 0.0000 -1.0000 -0.0000
vn 0.4339 0.0000 -0.9010
vn -0.4339 0.0000 0.9010
vn 0.6235 0.0000 -0.7818
vn -0.6235 0.0000 0.7818
vn 0.7818 0.0000 -0.6235
vn -0.7818 0.0000 0.6235
vn 0.9010 0.0000 -0.4339
vn -0.9010 0.0000 0.4339
vn 0.9749 0.0000 -0.2225
vn -0.9749 0.0000 0.2225
vn 1.0000 0.0000 -0.0000
vn -1.0000 0.0000 0.0000
vn 0.9749 0.0000 0.2225
vn -0.9749 0.0000 -0.2225
vn 0.9010 0.0000 0.4339
vn -0.9010 0.0000 -0.4339
vn 0.7818 0.0000 0.6235
vn -0.7818 0.0000 -0.6235
vn 0.6235 0.0000 0.7818
vn -0.6235 0.0000 -0.7818
vn 0.4339 0.0000 0.9010
vn -0.4339 0.0000 -0.9010
vn 0.2225 0.0000 0.9749
vn -0.2225 0.0000 -0.9749
vn 0.0000 0.0000 1.0000
vn -0.0000 0.0000 -1.0000
vn -1.0000 0.0000 -0.0000
vn 1.0000 0.0000 0.0000
# 34 vertex normals

o Tube001
g Tube001
s 2
f 1//1 2//1 14//2 13//2 
f 2//1 3//1 15//2 14//2 
f 3//1 4//1 16//2 15//2 
f 4//1 5//1 17//2 16//2 
f 5//1 6//1 18//2 17//2 
s 4
f 6//3 7//3 19//3 18//3 
s 2
f 7//4 8//4 20//5 19//5 
f 8//4 9//4 21//5 20//5 
f 9//4 10//4 22//5 21//5 
f 10//4 11//4 23//5 22//5 
f 11//4 12//4 24//5 23//5 
s 4
f 12//6 1//6 13//6 24//6 
s 2
f 13//2 14//2 26//7 25//7 
f 14//2 15//2 27//7 26//7 
f 15//2 16//2 28//7 27//7 
f 16//2 17//2 29//7 28//7 
f 17//2 18//2 30//7 29//7 
s 4
f 18//3 19//3 31//3 30//3 
s 2
f 19//5 20//5 32//8 31//8 
f 20//5 21//5 33//8 32//8 
f 21//5 22//5 34//8 33//8 
f 22//5 23//5 35//8 34//8 
f 23//5 24//5 36//8 35//8 
s 4
f 24//6 13//6 25//6 36//6 
s 2
f 25//7 26//7 38//9 37//9 
f 26//7 27//7 39//9 38//9 
f 27//7 28//7 40//9 39//9 
f 28//7 29//7 41//9 40//9 
f 29//7 30//7 42//9 41//9 
s 4
f 30//3 31//3 43//3 42//3 
s 2
f 31//8 32//8 44//10 43//10 
f 32//8 33//8 45//10 44//10 
f 33//8 34//8 46//10 45//10 
f 34//8 35//8 47//10 46//10 
f 35//8 36//8 48//10 47//10 
s 4
f 36//6 25//6 37//6 48//6 
s 2
f 37//9 38//9 50//11 49//11 
f 38//9 39//9 51//11 50//11 
f 39//9 40//9 52//11 51//11 
f 40//9 41//9 53//11 52//11 
f 41//9 42//9 54//11 53//11 
s 4
f 42//3 43//3 55//3 54//3 
s 2
f 43//10 44//10 56//12 55//12 
f 44//10 45//10 57//12 56//12 
f 45//10 46//10 58//12 57//12 
f 46//10 47//10 59//12 58//12 
f 47//10 48//10 60//12 59//12 
s 4
f 48//6 37//6 49//6 60//6 
s 2
f 49//11 50//11 62//13 61//13 
f 50//11 51//11 63//13 62//13 
f 51//11 52//11 64//13 63//13 
f 52//11 53//11 65//13 64//13 
f 53//11 54//11 66//13 65//13 
s 4
f 54//3 55//3 67//3 66//3 
s 2
f 55//12 56//12 68//14 67//14 
f 56//12 57//12 69//14 68//14 
f 57//12 58//12 70//14 69//14 
f 58//12 59//12 71//14 70//14 
f 59//12 60//12 72//14 71//14 
s 4
f 60//6 49//6 61//6 72//6 
s 2
f 61//13 62//13 74//15 73//15 
f 62//13 63//13 75//15 74//15 
f 63//13 64//13 76//15 75//15 
f 64//13 65//13 77//15 76//15 
f 65//13 66//13 78//15 77//15 
s 4
f 66//3 67//3 79//3 78//3 
s 2
f 67//14 68//14 80//16 79//16 
f 68//14 69//14 81//16 80//16 
f 69//14 70//14 82//16 81//16 
f 70//14 71//14 83//16 82//16 
f 71//14 72//14 84//16 83//16 
s 4
f 72//6 61//6 73//6 84//6 
s 2
f 73//15 74//15 86//17 85//17 
f 74//15 75//15 87//17 86//17 
f 75//15 76//15 88//17 87//17 
f 76//15 77//15 89//17 88//17 
f 77//15 78//15 90//17 89//17 
s 4
f 78//3 79//3 91//3 90//3 
s 2
f 79//16 80//16 92//18 91//18 
f 80//16 81//16 93//18 92//18 
f 81//16 82//16 94//18 93//18 
f 82//16 83//16 95//18 94//18 
f 83//16 84//16 96//18 95//18 
s 4
f 84//6 73//6 85//6 96//6 
s 2
f 85//17 86//17 98//19 97//19 
f 86//17 87//17 99//19 98//19 
f 87//17 88//17 100//19 99//19 
f 88//17 89//17 101//19 100//19 
f 89//17 90//17 102//19 101//19 
s 4
f 90//3 91//3 103//3 102//3 
s 2
f 91//18 92//18 104//20 103//20 
f 92//18 93//18 105//20 104//20 
f 93//18 94//18 106//20 105//20 
f 94//18 95//18 107//20 106//20 
f 95//18 96//18 108//20 107//20 
s 4
f 96//6 85//6 97//6 108//6 
s 2
f 97//19 98//19 110//21 109//21 
f 98//19 99//19 111//21 110//21 
f 99//19 100//19 112//21 111//21 
f 100//19 101//19 113//21 112//21 
f 101//19 102//19 114//21 113//21 
s 4
f 102//3 103//3 115//3 114//3 
s 2
f 103//20 104//20 116//22 115//22 
f 104//20 105//20 117//22 116//22 
f 105//20 106//20 118//22 117//22 
f 106//20 107//20 119//22 118//22 
f 107//20 108//20 120//22 119//22 
s 4
f 108//6 97//6 109//6 120//6 
s 2
f 109//21 110//21 122//23 121//23 
f 110//21 111//21 123//23 122//23 
f 111//21 112//21 124//23 123//23 
f 112//21 113//21 125//23 124//23 
f 113//21 114//21 126//23 125//23 
s 4
f 114//3 115//3 127//3 126//3 
s 2
f 115//22 116//22 128//24 127//24 
f 116//22 117//22 129//24 128//24 
f 117//22 118//22 130//24 129//24 
f 118//22 119//22 131//24 130//24 
f 119//22 120//22 132//24 131//24 
s 4
f 120//6 109//6 121//6 132//6 
s 2
f 121//23 122//23 134//25 133//25 
f 122//23 123//23 135//25 134//25 
f 123//23 124//23 136//25 135//25 
f 124//23 125//23 137//25 136//25 
f 125//23 126//23 138//25 137//25 
s 4
f 126//3 127//3 139//3 138//3 
s 2
f 127//24 128//24 140//26 139//26 
f 128//24 129//24 141//26 140//26 
f 129//24 130//24 142//26 141//26 
f 130//24 131//24 143//26 142//26 
f 131//24 132//24 144//26 143//26 
s 4
f 132//6 121//6 133//6 144//6 
s 2
f 133//25 134//25 146//27 145//27 
f 134//25 135//25 147//27 146//27 
f 135//25 136//25 148//27 147//27 
f 136//25 137//25 149//27 148//27 
f 137//25 138//25 150//27 149//27 
s 4
f 138//3 139//3 151//3 150//3 
s 2
f 139//26 140//26 152//28 151//28 
f 140//26 141//26 153//28 152//28 
f 141//26 142//26 154//28 153//28 
f 142//26 143//26 155//28 154//28 
f 143//26 144//26 156//28 155//28 
s 4
f 144//6 133//6 145//6 156//6 
s 2
f 145//27 146//27 158//29 157//29 
f 146//27 147//27 159//29 158//29 
f 147//27 148//27 160//29 159//29 
f 148//27 149//27 161//29 160//29 
f 149//27 150//27 162//29 161//29 
s 4
f 150//3 151//3 163//3 162//3 
s 2
f 151//28 152//28 164//30 163//30 
f 152//28 153//28 165//30 164//30 
f 153//28 154//28 166//30 165//30 
f 154//28 155//28 167//30 166//30 
f 155//28 156//28 168//30 167//30 
s 4
f 156//6 145//6 157//6 168//6 
s 2
f 157//29 158//29 170//31 169//31 
f 158//29 159//29 171//31 170//31 
f 159//29 160//29 172//31 171//31 
f 160//29 161//29 173//31 172//31 
f 161//29 162//29 174//31 173//31 
s 4
f 162//3 163//3 175//3 174//3 
s 2
f 163//30 164//30 176//32 175//32 
f 164//30 165//30 177//32 176//32 
f 165//30 166//30 178//32 177//32 
f 166//30 167//30 179//32 178//32 
f 167//30 168//30 180//32 179//32 
s 4
f 168//6 157//6 169//6 180//6 
s 2
f 169//31 170//31 182//5 181//5 
f 170//31 171//31 183//5 182//5 
f 171//31 172//31 184//5 183//5 
f 172//31 173//31 185//5 184//5 
f 173//31 174//31 186//5 185//5 
s 4
f 174//3 175//3 187//3 186//3 
s 2
f 175//32 176//32 188//2 187//2 
f 176//32 177//32 189//2 188//2 
f 177//32 178//32 190//2 189//2 
f 178//32 179//32 191//2 190//2 
f 179//32 180//32 192//2 191//2 
s 4
f 180//6 169//6 181//6 192//6 
s 2
f 181//5 182//5 194//8 193//8 
f 182//5 183//5 195//8 194//8 
f 183//5 184//5 196//8 195//8 
f 184//5 185//5 197//8 196//8 
f 185//5 186//5 198//8 197//8 
s 4
f 186//3 187//3 199//3 198//3 
s 2
f 187//2 188//2 200//7 199//7 
f 188//2 189//2 201//7 200//7 
f 189//2 190//2 202//7 201//7 
f 190//2 191//2 203//7 202//7 
f 191//2 192//2 204//7 203//7 
s 4
f 192//6 181//6 193//6 204//6 
s 2
f 193//8 194//8 206//10 205//10 
f 194//8 195//8 207//10 206//10 
f 195//8 196//8 208//10 207//10 
f 196//8 197//8 209//10 208//10 
f 197//8 198//8 210//10 209//10 
s 4
f 198//3 199//3 211//3 210//3 
s 2
f 199//7 200//7 212//9 211//9 
f 200//7 201//7 213//9 212//9 
f 201//7 202//7 214//9 213//9 
f 202//7 203//7 215//9 214//9 
f 203//7 204//7 216//9 215//9 
s 4
f 204//6 193//6 205//6 216//6 
s 2
f 205//10 206//10 218//12 217//12 
f 206//10 207//10 219//12 218//12 
f 207//10 208//10 220//12 219//12 
f 208//10 209//10 221//12 220//12 
f 209//10 210//10 222//12 221//12 
s 4
f 210//3 211//3 223//3 222//3 
s 2
f 211//9 212//9 224//11 223//11 
f 212//9 213//9 225//11 224//11 
f 213//9 214//9 226//11 225//11 
f 214//9 215//9 227//11 226//11 
f 215//9 216//9 228//11 227//11 
s 4
f 216//6 205//6 217//6 228//6 
s 2
f 217//12 218//12 230//14 229//14 
f 218//12 219//12 231//14 230//14 
f 219//12 220//12 232//14 231//14 
f 220//12 221//12 233//14 232//14 
f 221//12 222//12 234//14 233//14 
s 4
f 222//3 223//3 235//3 234//3 
s 2
f 223//11 224//11 236//13 235//13 
f 224//11 225//11 237//13 236//13 
f 225//11 226//11 238//13 237//13 
f 226//11 227//11 239//13 238//13 
f 227//11 228//11 240//13 239//13 
s 4
f 228//6 217//6 229//6 240//6 
s 2
f 229//14 230//14 242//16 241//16 
f 230//14 231//14 243//16 242//16 
f 231//14 232//14 244//16 243//16 
f 232//14 233//14 245//16 244//16 
f 233//14 234//14 246//16 245//16 
s 4
f 234//3 235//3 247//3 246//3 
s 2
f 235//13 236//13 248//15 247//15 
f 236//13 237//13 249//15 248//15 
f 237//13 238//13 250//15 249//15 
f 238//13 239//13 251//15 250//15 
f 239//13 240//13 252//15 251//15 
s 4
f 240//6 229//6 241//6 252//6 
s 2
f 241//16 242//16 254//33 253//33 
f 242//16 243//16 255//33 254//33 
f 243//16 244//16 256//33 255//33 
f 244//16 245//16 257//33 256//33 
f 245//16 246//16 258//33 257//33 
s 4
f 246//3 247//3 259//3 258//3 
s 2
f 247//15 248//15 260//34 259//34 
f 248//15 249//15 261//34 260//34 
f 249//15 250//15 262//34 261//34 
f 250//15 251//15 263//34 262//34 
f 251//15 252//15 264//34 263//34 
s 4
f 252//6 241//6 253//6 264//6 
s 2
f 253//33 254//33 266//20 265//20 
f 254//33 255//33 267//20 266//20 
f 255//33 256//33 268//20 267//20 
f 256//33 257//33 269//20 268//20 
f 257//33 258//33 270//20 269//20 
s 4
f 258//3 259//3 271//3 270//3 
s 2
f 259//34 260//34 272//19 271//19 
f 260//34 261//34 273//19 272//19 
f 261//34 262//34 274//19 273//19 
f 262//34 263//34 275//19 274//19 
f 263//34 264//34 276//19 275//19 
s 4
f 264//6 253//6 265//6 276//6 
s 2
f 265//20 266//20 278//22 277//22 
f 266//20 267//20 279//22 278//22 
f 267//20 268//20 280//22 279//22 
f 268//20 269//20 281//22 280//22 
f 269//20 270//20 282//22 281//22 
s 4
f 270//3 271//3 283//3 282//3 
s 2
f 271//19 272//19 284//21 283//21 
f 272//19 273//19 285//21 284//21 
f 273//19 274//19 286//21 285//21 
f 274//19 275//19 287//21 286//21 
f 275//19 276//19 288//21 287//21 
s 4
f 276//6 265//6 277//6 288//6 
s 2
f 277//22 278//22 290//24 289//24 
f 278//22 279//22 291//24 290//24 
f 279//22 280//22 292//24 291//24 
f 280//22 281//22 293//24 292//24 
f 281//22 282//22 294//24 293//24 
s 4
f 282//3 283//3 295//3 294//3 
s 2
f 283//21 284//21 296//23 295//23 
f 284//21 285//21 297//23 296//23 
f 285//21 286//21 298//23 297//23 
f 286//21 287//21 299//23 298//23 
f 287//21 288//21 300//23 299//23 
s 4
f 288//6 277//6 289//6 300//6 
s 2
f 289//24 290//24 302//26 301//26 
f 290//24 291//24 303//26 302//26 
f 291//24 292//24 304//26 303//26 
f 292//24 293//24 305//26 304//26 
f 293//24 294//24 306//26 305//26 
s 4
f 294//3 295//3 307//3 306//3 
s 2
f 295//23 296//23 308//25 307//25 
f 296//23 297//23 309//25 308//25 
f 297//23 298//23 310//25 309//25 
f 298//23 299//23 311//25 310//25 
f 299//23 300//23 312//25 311//25 
s 4
f 300//6 289//6 301//6 312//6 
s 2
f 301//26 302//26 314//28 313//28 
f 302//26 303//26 315//28 314//28 
f 303//26 304//26 316//28 315//28 
f 304//26 305//26 317//28 316//28 
f 305//26 306//26 318//28 317//28 
s 4
f 306//3 307//3 319//3 318//3 
s 2
f 307//25 308//25 320//27 319//27 
f 308//25 309//25 321//27 320//27 
f 309//25 310//25 322//27 321//27 
f 310//25 311//25 323//27 322//27 
f 311//25 312//25 324//27 323//27 
s 4
f 312//6 301//6 313//6 324//6 
s 2
f 313//28 314//28 326//30 325//30 
f 314//28 315//28 327//30 326//30 
f 315//28 316//28 328//30 327//30 
f 316//28 317//28 329//30 328//30 
f 317//28 318//28 330//30 329//30 
s 4
f 318//3 319//3 331//3 330//3 
s 2
f 319//27 320//27 332//29 331//29 
f 320//27 321//27 333//29 332//29 
f 321//27 322//27 334//29 333//29 
f 322//27 323//27 335//29 334//29 
f 323//27 324//27 336//29 335//29 
s 4
f 324//6 313//6 325//6 336//6 
s 2
f 325//30 326//30 2//1 1//1 
f 326//30 327//30 3//1 2//1 
f 327//30 328//30 4//1 3//1 
f 328//30 329//30 5//1 4//1 
f 329//30 330//30 6//1 5//1 
s 4
f 330//3 331//3 7//3 6//3 
s 2
f 331//29 332//29 8//4 7//4 
f 332//29 333//29 9//4 8//4 
f 333//29 334//29 10//4 9//4 
f 334//29 335//29 11//4 10//4 
f 335//29 336//29 12//4 11//4 
s 4
f 336//6 325//6 1//6 12//6 
# 336 polygons

